{
  "accessors": [
    {
      "bufferView": 2,
      "componentType": 5126,
      "count": 1187,
      "max": [
        137.13735961914063,
        57.735591888427734,
        143.27651977539063
      ],
      "min": [
        -168.7463836669922,
        -27.400609970092773,
        -156.9482879638672
      ],
      "type": "VEC3"
    },
    {
      "bufferView": 2,
      "byteOffset": 14244,
      "componentType": 5126,
      "count": 1187,
      "max": [
        0.9980636835098267,
        0.9999926090240479,
        0.9970902800559998
      ],
      "min": [
        -1.0,
        -0.9999622702598572,
        -1.0
      ],
      "type": "VEC3"
    },
    {
      "bufferView": 1,
      "componentType": 5126,
      "count": 1187,
      "max": [
        0.996861457824707,
        0.9977208375930786
      ],
      "min": [
        0.0076187849044799805,
        0.01360529288649559
      ],
      "type": "VEC2"
    },
    {
      "bufferView": 0,
      "componentType": 5125,
      "count": 3843,
      "type": "SCALAR"
    },
    {
      "bufferView": 2,
      "byteOffset": 28488,
      "componentType": 5126,
      "count": 53906,
      "max": [
        118.3303451538086,
        161.48236083984375,
        119.1335220336914
      ],
      "min": [
        -153.15573120117188,
        -6.693600654602051,
        -108.58297729492188
      ],
      "type": "VEC3"
    },
    {
      "bufferView": 2,
      "byteOffset": 675360,
      "componentType": 5126,
      "count": 53906,
      "max": [
        1.0,
        1.0,
        1.0
      ],
      "min": [
        -1.0,
        -1.0,
        -1.0
      ],
      "type": "VEC3"
    },
    {
      "bufferView": 1,
      "byteOffset": 9496,
      "componentType": 5126,
      "count": 53906,
      "max": [
        0.9996190071105957,
        2.982415199279785
      ],
      "min": [
        -0.0015771687030792236,
        -2.9217400550842285
      ],
      "type": "VEC2"
    },
    {
      "bufferView": 1,
      "byteOffset": 440744,
      "componentType": 5126,
      "count": 53906,
      "max": [
        0.9590252637863159,
        0.9980080723762512
      ],
      "min": [
        0.0,
        0.0
      ],
      "type": "VEC2"
    },
    {
      "bufferView": 0,
      "byteOffset": 15372,
      "componentType": 5125,
      "count": 145044,
      "type": "SCALAR"
    },
    {
      "bufferView": 2,
      "byteOffset": 1322232,
      "componentType": 5126,
      "count": 224,
      "max": [
        -64.71371459960938,
        66.2149429321289,
        39.78569030761719
      ],
      "min": [
        -83.6027603149414,
        45.58680725097656,
        -89.995849609375
      ],
      "type": "VEC3"
    },
    {
      "bufferView": 2,
      "byteOffset": 1324920,
      "componentType": 5126,
      "count": 224,
      "max": [
        0.9985907077789307,
        0.9989446401596069,
        0.9961783289909363
      ],
      "min": [
        -0.9995239973068237,
        -0.9986014366149902,
        -0.9967479705810547
      ],
      "type": "VEC3"
    },
    {
      "bufferView": 1,
      "byteOffset": 871992,
      "componentType": 5126,
      "count": 224,
      "max": [
        0.0,
        0.0
      ],
      "min": [
        0.0,
        0.0
      ],
      "type": "VEC2"
    },
    {
      "bufferView": 0,
      "byteOffset": 595548,
      "componentType": 5125,
      "count": 984,
      "type": "SCALAR"
    },
    {
      "bufferView": 2,
      "byteOffset": 1327608,
      "componentType": 5126,
      "count": 2567,
      "max": [
        146.198974609375,
        20.46166229248047,
        116.06857299804688
      ],
      "min": [
        -121.20008850097656,
        -7.7449798583984375,
        -143.46505737304688
      ],
      "type": "VEC3"
    },
    {
      "bufferView": 2,
      "byteOffset": 1358412,
      "componentType": 5126,
      "count": 2567,
      "max": [
        0.9969474673271179,
        0.22598984837532043,
        0.9998636841773987
      ],
      "min": [
        -0.9986770153045654,
        -0.9999842047691345,
        -0.9999331831932068
      ],
      "type": "VEC3"
    },
    {
      "bufferView": 1,
      "byteOffset": 873784,
      "componentType": 5126,
      "count": 2567,
      "max": [
        0.9845182299613953,
        0.7498959302902222
      ],
      "min": [
        0.20358318090438843,
        0.31454998254776
      ],
      "type": "VEC2"
    },
    {
      "bufferView": 0,
      "byteOffset": 599484,
      "componentType": 5125,
      "count": 9612,
      "type": "SCALAR"
    }
  ],
  "asset": {
    "extras": {
      "author": "Khadka Niyash (https://sketchfab.com/niyash)",
      "license": "CC-BY-4.0 (http://creativecommons.org/licenses/by/4.0/)",
      "source": "https://sketchfab.com/3d-models/viking-hunter-da368df4b727479a895a550940dc82be",
      "title": "Viking hunter"
    },
    "generator": "Sketchfab-11.10.0",
    "version": "2.0"
  },
  "bufferViews": [
    {
      "buffer": 0,
      "byteLength": 637932,
      "name": "floatBufferViews",
      "target": 34963
    },
    {
      "buffer": 0,
      "byteLength": 894320,
      "byteOffset": 637932,
      "byteStride": 8,
      "name": "floatBufferViews",
      "target": 34962
    },
    {
      "buffer": 0,
      "byteLength": 1389216,
      "byteOffset": 1532252,
      "byteStride": 12,
      "name": "floatBufferViews",
      "target": 34962
    }
  ],
  "buffers": [
    {
      "byteLength": 2921468,
      "uri": "scene.bin"
    }
  ],
  "images": [
    {
      "uri": "textures/tex_enviroment_baseColor.jpeg"
    },
    {
      "uri": "textures/Building_Tex_baseColor.jpeg"
    },
    {
      "uri": "textures/standardSurface1_baseColor.png"
    },
    {
      "uri": "textures/standardSurface1_emissive.png"
    }
  ],
  "materials": [
    {
      "doubleSided": true,
      "name": "tex_enviroment",
      "pbrMetallicRoughness": {
        "baseColorTexture": {
          "index": 0
        },
        "metallicFactor": 0.0,
        "roughnessFactor": 0.6
      }
    },
    {
      "doubleSided": true,
      "name": "Building_Tex",
      "pbrMetallicRoughness": {
        "baseColorTexture": {
          "index": 1
        },
        "metallicFactor": 0.0,
        "roughnessFactor": 0.6
      }
    },
    {
      "alphaMode": "BLEND",
      "doubleSided": true,
      "emissiveFactor": [
        1.0,
        1.0,
        1.0
      ],
      "emissiveTexture": {
        "index": 3
      },
      "name": "standardSurface1",
      "pbrMetallicRoughness": {
        "baseColorTexture": {
          "index": 2
        },
        "metallicFactor": 0.0,
        "roughnessFactor": 0.6996455586
      }
    }
  ],
  "meshes": [
    {
      "name": "pPlane34_tex_enviroment_0",
      "primitives": [
        {
          "attributes": {
            "NORMAL": 1,
            "POSITION": 0,
            "TEXCOORD_0": 2
          },
          "indices": 3,
          "material": 0,
          "mode": 4
        }
      ]
    },
    {
      "name": "polySurface905_Building_Tex_0",
      "primitives": [
        {
          "attributes": {
            "NORMAL": 5,
            "POSITION": 4,
            "TEXCOORD_0": 6,
            "TEXCOORD_1": 7
          },
          "indices": 8,
          "material": 1,
          "mode": 4
        }
      ]
    },
    {
      "name": "wire7_Building_Tex_0",
      "primitives": [
        {
          "attributes": {
            "NORMAL": 10,
            "POSITION": 9,
            "TEXCOORD_0": 11
          },
          "indices": 12,
          "material": 1,
          "mode": 4
        }
      ]
    },
    {
      "name": "polySurface911_standardSurface1_0",
      "primitives": [
        {
          "attributes": {
            "NORMAL": 14,
            "POSITION": 13,
            "TEXCOORD_0": 15
          },
          "indices": 16,
          "material": 2,
          "mode": 4
        }
      ]
    }
  ],
  "nodes": [
    {
      "children": [
        1
      ],
      "matrix": [
        1.0,
        0.0,
        0.0,
        0.0,
        0.0,
        2.220446049250313e-16,
        -1.0,
        0.0,
        0.0,
        1.0,
        2.220446049250313e-16,
        0.0,
        0.0,
        0.0,
        0.0,
        1.0
      ],
      "name": "Sketchfab_model"
    },
    {
      "children": [
        2
      ],
      "matrix": [
        1.0,
        0.0,
        0.0,
        0.0,
        0.0,
        0.0,
        1.0,
        0.0,
        0.0,
        -1.0,
        0.0,
        0.0,
        0.0,
        0.0,
        0.0,
        1.0
      ],
      "name": "fbae86b1a44e4cfaa876a87ac5b46af4.fbx"
    },
    {
      "children": [
        3,
        5,
        7,
        9
      ],
      "name": "RootNode"
    },
    {
      "children": [
        4
      ],
      "matrix": [
        1.0,
        0.0,
        0.0,
        0.0,
        0.0,
        1.0,
        0.0,
        0.0,
        0.0,
        0.0,
        1.0,
        0.0,
        9.770780563354492,
        0.0,
        0.0,
        1.0
      ],
      "name": "pPlane34"
    },
    {
      "mesh": 0,
      "name": "pPlane34_tex_enviroment_0"
    },
    {
      "children": [
        6
      ],
      "matrix": [
        1.0,
        0.0,
        0.0,
        0.0,
        0.0,
        1.0,
        0.0,
        0.0,
        0.0,
        0.0,
        1.0,
        0.0,
        9.770780563354492,
        0.0,
        0.0,
        1.0
      ],
      "name": "polySurface905"
    },
    {
      "mesh": 1,
      "name": "polySurface905_Building_Tex_0"
    },
    {
      "children": [
        8
      ],
      "matrix": [
        1.0,
        0.0,
        0.0,
        0.0,
        0.0,
        1.0,
        0.0,
        0.0,
        0.0,
        0.0,
        1.0,
        0.0,
        -9.87256908416748,
        0.0,
        0.0,
        1.0
      ],
      "name": "wire7"
    },
    {
      "mesh": 2,
      "name": "wire7_Building_Tex_0"
    },
    {
      "children": [
        10
      ],
      "name": "polySurface911"
    },
    {
      "mesh": 3,
      "name": "polySurface911_standardSurface1_0"
    }
  ],
  "samplers": [
    {
      "magFilter": 9729,
      "minFilter": 9987,
      "wrapS": 10497,
      "wrapT": 10497
    }
  ],
  "scene": 0,
  "scenes": [
    {
      "name": "Sketchfab_Scene",
      "nodes": [
        0
      ]
    }
  ],
  "textures": [
    {
      "sampler": 0,
      "source": 0
    },
    {
      "sampler": 0,
      "source": 1
    },
    {
      "sampler": 0,
      "source": 2
    },
    {
      "sampler": 0,
      "source": 3
    }
  ]
}
